<svg width="581" height="834" viewBox="0 0 581 834" fill="none" xmlns="http://www.w3.org/2000/svg">
<g filter="url(#filter0_f_116_96)">
<path d="M-476.205 637.942C-478.783 608.324 -475.529 576.042 -471.298 546.973C-469.283 533.128 -471.298 523.183 -470.897 510.946C-471.266 504.307 -476.536 495.273 -479.51 489.329C-483.171 482.014 -481.714 473.074 -481.714 465.011C-481.714 416.351 -467.66 364.55 -445.659 321.802C-434.115 299.374 -418.246 277.277 -416.815 251.549L-416.792 251.123C-415.927 235.555 -414.901 217.101 -407.802 202.912C-401.815 190.948 -393.521 180.857 -385.368 170.488C-369.485 150.288 -351.567 125.317 -326.679 115.646C-296.899 104.074 -267.144 105.638 -235.14 105.638C-188.153 105.638 -141.374 100.234 -94.5265 100.234C-61.3996 100.234 -28.3696 98.6261 4.22324 103.837C23.7037 106.952 42.7896 111.48 61.7104 117.347C88.6846 125.712 113.003 139.787 139.028 150.673L139.297 150.785C150.328 155.399 162.083 160.316 172.578 166.084C180.006 170.166 186.019 175.629 194.211 178.494C205.044 182.282 213.187 186.981 223.155 192.104C241.06 201.305 253.815 215.232 270.427 225.93C287.862 237.157 301.833 255.344 313.292 272.365C326.823 292.464 337.932 313.238 345.741 336.213C350.804 351.11 358.125 368.242 368.375 380.347C377.455 391.069 389.534 398.165 398.922 408.268C412.758 423.158 423.469 436.487 433.975 454.203C456.076 491.471 468.714 529.683 475.939 572.192C477.81 583.206 482.463 594.763 480.545 606.018C478.763 616.483 476.39 626.278 474.136 636.641C469.494 657.976 458.552 676.584 446.694 694.685C435.017 712.511 423.93 730.63 410.64 747.325C397.765 763.499 382.951 778.307 370.679 794.861C358.578 811.185 343.867 823.858 333.122 841.497C322.217 859.398 310.76 877.887 296.967 893.736C282.527 910.33 266.451 925.477 244.788 931.565C211.363 940.959 174.891 936.508 142.032 946.877C115.019 955.401 86.7523 955.982 60.9092 968.893C40.3854 979.148 21.5471 992.188 3.22171 1005.92C-5.83508 1012.71 -13.7487 1020.93 -24.2199 1025.74C-32.3005 1029.44 -41.6902 1036.69 -50.8603 1036.95C-73.8389 1037.58 -97.1967 1032.58 -119.364 1027.04C-159 1017.14 -204.334 995.927 -234.839 968.493C-247.191 957.385 -262.032 948.627 -273.598 937.069C-287.676 923.002 -308.337 917.594 -323.073 903.644C-336.386 891.042 -350.582 879.653 -360.93 864.414C-368.8 852.825 -376.707 841.293 -384.366 829.388C-404.911 797.453 -407.012 755.471 -428.533 724.408C-432.488 718.7 -433.62 712.709 -438.448 707.195C-443.816 701.064 -447.877 693.894 -452.87 687.48C-462.794 674.73 -474.782 654.3 -476.205 637.942Z" fill="url(#paint0_linear_116_96)"/>
</g>
<defs>
<filter id="filter0_f_116_96" x="-582" y="0" width="1163" height="1137" filterUnits="userSpaceOnUse" color-interpolation-filters="sRGB">
<feFlood flood-opacity="0" result="BackgroundImageFix"/>
<feBlend mode="normal" in="SourceGraphic" in2="BackgroundImageFix" result="shape"/>
<feGaussianBlur stdDeviation="50" result="effect1_foregroundBlur_116_96"/>
</filter>
<linearGradient id="paint0_linear_116_96" x1="575.24" y1="4.3774" x2="-600.843" y2="1112.96" gradientUnits="userSpaceOnUse">
<stop stop-color="#8338EC"/>
<stop offset="1" stop-color="#FF006E"/>
</linearGradient>
</defs>
</svg>
